# xmcd CD database file
#
# Track frame offsets:
#	150
#	26244
#	59938
#	108059
#	132593
#	160164
#	202398
#	236022
#	246073
#	279568
#	297527
#
# Disc length: 4223 seconds
#
# Revision: 0
# Processed by: cddbd v1.5.2PL0 Copyright (c) Steve Scherf et al.
# Submitted via: CDex 1.51
#
DISCID=b4107d0b
DTITLE=Marc Stone Band - Knickin' at the Old Point
DYEAR=2005
DGENRE=Blues
TTITLE0=20-75
TTITLE1=7th Ave. (Oh, She Was Pretty)
TTITLE2=Write Me A Few Lines
TTITLE3=Shining Like a Diamond
TTITLE4=I Can't Hold Out
TTITLE5=Tell Me/Sean's Lament
TTITLE6=Restless Heart
TTITLE7=Bye Bye Shuffle
TTITLE8=Bap Bap
TTITLE9=Pimpin' Green
TTITLE10=Drunk Show
EXTD=YEAR: 2005
EXTT0=
EXTT1=
EXTT2=
EXTT3=
EXTT4=
EXTT5=
EXTT6=
EXTT7=
EXTT8=
EXTT9=
EXTT10=
PLAYORDER=
